<svg width="50" height="45" viewBox="0 0 50 45" fill="none" xmlns="http://www.w3.org/2000/svg">
<g clip-path="url(#clip0_373_510)">
<path d="M44.4249 30.25C43.0881 30.25 41.5062 28.7595 41.5062 27.5V13.75C41.5062 6.16894 34.9589 0 26.9129 0C18.8668 0 12.3195 6.16894 12.3195 13.75V27.5C12.3195 28.7327 10.7092 30.25 9.40087 30.25C7.78758 30.25 6.48221 31.4799 6.48221 33C6.48221 34.5201 7.78758 35.75 9.40087 35.75H44.4249C46.0381 35.75 47.3435 34.5201 47.3435 33C47.3435 31.4799 46.0381 30.25 44.4249 30.25Z" fill="#B5B5B5"/>
<path d="M26.9129 44C30.1365 44 32.7502 41.5374 32.7502 38.5H21.0755C21.0755 41.5374 23.6892 44 26.9129 44Z" fill="#B5B5B5"/>
</g>
<ellipse cx="41.8784" cy="37" rx="8.1215" ry="8" fill="#606060"/>
<path d="M42.7552 33.7273V41H41.4377V35.0092H41.3951L39.6941 36.0959V34.8885L41.5017 33.7273H42.7552Z" fill="white"/>
<defs>
<clipPath id="clip0_373_510">
<rect width="46.6986" height="44" fill="white" transform="translate(0.255737)"/>
</clipPath>
</defs>
</svg>
