<svg width="47" height="52" viewBox="0 0 47 52" fill="none" xmlns="http://www.w3.org/2000/svg">
<path d="M17.6288 36.8333H10.9791C8.51468 36.8333 7.28247 36.8333 7.02321 36.6217C6.73195 36.3838 6.66078 36.2434 6.62923 35.8445C6.60117 35.4894 7.35638 34.122 8.86684 31.3876C10.4264 28.5643 11.7506 24.4534 11.7506 18.6333C11.7506 15.4154 12.9885 12.3292 15.1921 10.0538C17.3956 7.77833 20.3843 6.5 23.5006 6.5C26.6169 6.5 29.6055 7.77833 31.809 10.0538C34.0127 12.3292 35.2506 15.4154 35.2506 18.6333C35.2506 24.4534 36.5748 28.5643 38.1344 31.3876C39.6447 34.122 40.4 35.4894 40.372 35.8445C40.3405 36.2434 40.2692 36.3838 39.978 36.6217C39.7187 36.8333 38.4865 36.8333 36.0222 36.8333H29.3756M17.6288 36.8333L17.6256 39C17.6256 42.59 20.256 45.5 23.5006 45.5C26.7453 45.5 29.3756 42.59 29.3756 39V36.8333M17.6288 36.8333H29.3756" stroke="black" stroke-width="2.77" stroke-linecap="round" stroke-linejoin="round"/>
</svg>
