<svg width="52" height="52" viewBox="0 0 52 52" fill="none" xmlns="http://www.w3.org/2000/svg">
<path fill-rule="evenodd" clip-rule="evenodd" d="M6.78491 11.1504C6.78491 6.43388 10.6084 2.61035 15.325 2.61035H33.1378C35.4028 2.61035 37.575 3.51011 39.1765 5.11168L42.714 8.64911C44.3155 10.2507 45.2153 12.4229 45.2153 14.6879V41.0407C45.2153 45.7573 41.3918 49.5808 36.6752 49.5808H15.325C10.6084 49.5808 6.78491 45.7573 6.78491 41.0407V11.1504ZM40.9452 17.5555V41.0407C40.9452 43.399 39.0335 45.3108 36.6752 45.3108H15.325C12.9667 45.3108 11.055 43.399 11.055 41.0407V11.1504C11.055 8.79216 12.9667 6.88039 15.325 6.88039H30.2701V11.1504C30.2701 14.6879 33.1378 17.5555 36.6752 17.5555H40.9452ZM40.7084 13.2855C40.4987 12.6825 40.1545 12.1284 39.6946 11.6685L36.1572 8.13106C35.6972 7.6711 35.1431 7.32692 34.5402 7.11725V11.1504C34.5402 12.3296 35.4961 13.2855 36.6752 13.2855H40.7084Z" fill="#141416"/>
<path d="M25.1828 19.8515C24.931 19.9556 24.6951 20.1101 24.4904 20.3148L18.0853 26.7198C17.2515 27.5536 17.2515 28.9054 18.0853 29.7392C18.9191 30.573 20.2709 30.573 21.1047 29.7392L23.865 26.9789V36.7696C23.865 37.9488 24.8209 38.9046 26 38.9046C27.1792 38.9046 28.1351 37.9488 28.1351 36.7696V26.9789L30.8954 29.7392C31.7292 30.573 33.081 30.573 33.9148 29.7392C34.7486 28.9054 34.7486 27.5536 33.9148 26.7198L27.5097 20.3148C26.8807 19.6857 25.9567 19.5313 25.1828 19.8515Z" fill="#141416"/>
</svg>
