<svg width="28" height="28" viewBox="0 0 28 28" fill="none" xmlns="http://www.w3.org/2000/svg">
<path d="M20.6015 3.00586H6.84542C4.49329 3.00586 2.57593 4.92324 2.57593 7.27537V21.0314C2.57593 23.3836 4.49329 25.3009 6.84542 25.3009H20.6015C22.6304 25.3009 24.3248 23.8741 24.7595 21.979C24.8264 21.8564 24.871 21.7226 24.871 21.5777V7.27537C24.871 4.92324 22.9536 3.00586 20.6015 3.00586ZM21.4376 15.3016C21.4376 15.7586 21.0586 16.1377 20.6015 16.1377C20.1333 16.1377 19.7655 15.7586 19.7655 15.3016V13.0052C19.7655 12.5482 20.1333 12.1691 20.6015 12.1691C21.0586 12.1691 21.4376 12.5482 21.4376 13.0052V15.3016ZM6.00936 15.3016V13.0052C6.00936 12.5482 6.38837 12.1691 6.84542 12.1691C7.31362 12.1691 7.68149 12.5482 7.68149 13.0052V15.3016C7.68149 15.7586 7.31362 16.1377 6.84542 16.1377C6.38837 16.1377 6.00936 15.7586 6.00936 15.3016ZM17.993 10.72V17.5868C17.993 18.055 17.6251 18.4229 17.1569 18.4229C16.6998 18.4229 16.3208 18.055 16.3208 17.5868V10.72C16.3208 10.2518 16.6998 9.88389 17.1569 9.88389C17.6251 9.88389 17.993 10.2518 17.993 10.72ZM14.5595 8.42356V19.8832C14.5595 20.3403 14.1805 20.7193 13.7235 20.7193C13.2664 20.7193 12.8874 20.3403 12.8874 19.8832V8.42356C12.8874 7.96652 13.2664 7.5875 13.7235 7.5875C14.1805 7.5875 14.5595 7.96652 14.5595 8.42356ZM11.1261 10.72V17.5868C11.1261 18.055 10.7471 18.4229 10.29 18.4229C9.82184 18.4229 9.45398 18.055 9.45398 17.5868V10.72C9.45398 10.2518 9.82184 9.88389 10.29 9.88389C10.7471 9.88389 11.1261 10.2518 11.1261 10.72Z" fill="black"/>
</svg>
