<svg width="28" height="28" viewBox="0 0 28 28" fill="none" xmlns="http://www.w3.org/2000/svg">
<path d="M19.5334 2.80762H8.07369C6.35697 2.80762 4.95239 4.20105 4.95239 5.92892V21.9702C4.95239 23.6981 6.35697 25.1027 8.07369 25.1027H19.5334C21.2613 25.1027 22.6547 23.6981 22.6547 21.9702V5.92892C22.6547 4.20105 21.2613 2.80762 19.5334 2.80762ZM9.22192 18.8935H18.3852C18.8534 18.8935 19.2212 19.2725 19.2212 19.7296C19.2212 20.1866 18.8534 20.5657 18.3852 20.5657H9.22192C8.76487 20.5657 8.38585 20.1866 8.38585 19.7296C8.38585 19.2725 8.76487 18.8935 9.22192 18.8935ZM8.38585 13.9997C8.38585 13.5427 8.76487 13.1637 9.22192 13.1637H18.3852C18.8534 13.1637 19.2212 13.5427 19.2212 13.9997C19.2212 14.4679 18.8534 14.8358 18.3852 14.8358H9.22192C8.76487 14.8358 8.38585 14.4679 8.38585 13.9997ZM18.3852 9.10597H9.22192C8.76487 9.10597 8.38585 8.7381 8.38585 8.26991C8.38585 7.81286 8.76487 7.43384 9.22192 7.43384H18.3852C18.8534 7.43384 19.2212 7.81286 19.2212 8.26991C19.2212 8.7381 18.8534 9.10597 18.3852 9.10597Z" fill="black"/>
</svg>
