<svg width="60" height="60" viewBox="0 0 60 60" fill="none" xmlns="http://www.w3.org/2000/svg">
<path fill-rule="evenodd" clip-rule="evenodd" d="M30.2225 8.18652C50.8838 8.18652 42.8323 42.4255 30.2225 42.4255C18.3138 42.4255 9.5613 8.18652 30.2225 8.18652Z" fill="#FFE8BE"/>
<path d="M30 60C46.5685 60 60 46.5685 60 30C60 13.4315 46.5685 0 30 0C13.4315 0 0 13.4315 0 30C0 46.5685 13.4315 60 30 60Z" fill="#3061DF"/>
<path d="M18.4583 21.084H42.2486V46.8841H18.4592L18.4583 21.084Z" fill="#302E33"/>
<path fill-rule="evenodd" clip-rule="evenodd" d="M24.0234 37.5537L36.5778 37.6712V50.213L24.0234 50.0955V37.5537Z" fill="#F9DCA4"/>
<path opacity="0.11" fill-rule="evenodd" clip-rule="evenodd" d="M36.5798 37.6483V41.124C36.5798 41.4124 36.5779 41.2337 36.5779 41.6221C36.6151 41.8981 36.5776 42.1791 36.4691 42.4357C32.2274 46.4784 25.1895 44.3599 24.1099 37.4541L36.5798 37.6483Z" fill="black"/>
<path fill-rule="evenodd" clip-rule="evenodd" d="M51.2594 51.1662C48.6225 45.0623 42.606 44.474 36.5778 41.6225C36.5778 46.8789 24.0224 46.4565 24.0224 41.3662C18.6166 43.8128 10.7894 44.9779 8.46313 50.8818C11.2362 53.7425 14.5513 56.022 18.215 57.5875C21.8787 59.1529 25.8176 59.9728 29.8016 59.9993C33.7856 60.0257 37.735 59.2583 41.4192 57.7417C45.1034 56.2251 48.4486 53.9898 51.2594 51.1662Z" fill="#D94949"/>
<path fill-rule="evenodd" clip-rule="evenodd" d="M42.1274 24.7959C45.0012 26.0483 42.2488 31.1406 40.8624 30.6464C38.6274 29.8483 41.9925 27.1668 42.1274 24.7949V24.7959Z" fill="#F9DCA4"/>
<path fill-rule="evenodd" clip-rule="evenodd" d="M30.2078 8.41406C38.6758 8.41406 42.2243 14.4335 42.4418 21.3918C42.7399 30.9161 36.9321 42.1977 30.2087 42.1977C23.8398 42.1977 17.8728 30.5297 18.2349 20.9083C18.4873 14.1578 21.9378 8.41406 30.2078 8.41406Z" fill="#FFE8BE"/>
<path fill-rule="evenodd" clip-rule="evenodd" d="M38.5787 19.627C38.5787 19.627 33.5661 36.8697 13.9185 31.1202C18.8243 28.4474 18.2758 24.5454 17.9291 19.627H38.5787Z" fill="#464449"/>
<path fill-rule="evenodd" clip-rule="evenodd" d="M32.6846 19.9499C32.6846 19.9499 35.5312 29.0713 45.34 29.7733C44.2123 28.8733 43.2672 27.7661 42.5555 26.5111C43.4179 26.9045 44.3841 27.0093 45.3108 26.8102C42.9263 25.0218 42.3322 23.5684 42.7331 20.1208C43.1341 16.6732 32.6846 19.9499 32.6846 19.9499Z" fill="#464449"/>
<path d="M30.3537 26.5803C38.7057 26.5803 45.4764 25.0124 45.4764 23.0782C45.4764 21.1441 38.7057 19.5762 30.3537 19.5762C22.0016 19.5762 15.231 21.1441 15.231 23.0782C15.231 25.0124 22.0016 26.5803 30.3537 26.5803Z" fill="#58B0E0"/>
<path fill-rule="evenodd" clip-rule="evenodd" d="M26.1855 6.42969H34.5215C36.7091 6.43609 38.8052 7.30787 40.3522 8.85464C41.8991 10.4014 42.7712 12.4975 42.7778 14.6851V21.0831H17.9292V14.6851C17.9359 12.4975 18.8079 10.4014 20.3548 8.85464C21.9018 7.30787 23.998 6.43609 26.1855 6.42969Z" fill="#BB2828"/>
<path fill-rule="evenodd" clip-rule="evenodd" d="M25.636 12.8057H27.602L29.0273 15.6435V13.9057C29.0334 13.8117 29.0248 13.7174 29.002 13.6261C28.9856 13.5772 28.9522 13.5359 28.9078 13.5096C28.835 13.4813 28.7566 13.47 28.6787 13.4765H28.4418V12.8057H30.4477V13.4765H30.2263C30.1451 13.4716 30.0638 13.4849 29.9884 13.5154C29.9445 13.5377 29.9096 13.5743 29.8894 13.6193C29.8659 13.7125 29.8567 13.8087 29.8622 13.9047V17.6678H28.8574L27.0564 14.0833V16.5921C27.0502 16.6848 27.0591 16.7779 27.0826 16.8678C27.1018 16.9091 27.1347 16.9424 27.1758 16.962C27.2506 16.9895 27.3303 17.0011 27.4098 16.996H27.6428V17.6678H25.636V16.9969H25.8438C25.9239 17.0022 26.0043 16.992 26.0806 16.9668C26.1258 16.9454 26.1621 16.909 26.1836 16.8639C26.2124 16.7945 26.2254 16.7196 26.2214 16.6445V13.8532C26.2259 13.7731 26.2143 13.6929 26.1874 13.6173C26.1684 13.572 26.1354 13.5339 26.0933 13.5086C26.0309 13.4818 25.9629 13.4705 25.8952 13.4756H25.636V12.8057ZM30.6389 12.8057H33.0515V13.4765H32.871C32.7899 13.4688 32.708 13.4787 32.6312 13.5057C32.6148 13.5152 32.6016 13.5293 32.593 13.5461C32.5844 13.563 32.5808 13.582 32.5826 13.6008C32.5969 13.6994 32.6356 13.7929 32.6952 13.8727L33.335 14.9319L34.0467 13.8338C34.0824 13.7812 34.1173 13.7281 34.1515 13.6746C34.1607 13.6491 34.1653 13.6221 34.1651 13.595C34.1667 13.5778 34.1639 13.5605 34.1569 13.5447C34.1499 13.5289 34.1391 13.5151 34.1253 13.5047C34.0659 13.4796 34.0011 13.4699 33.937 13.4765H33.6875V12.8057H35.6215V13.4765C35.4993 13.456 35.3737 13.4772 35.265 13.5367C35.1563 13.5962 35.0709 13.6906 35.0224 13.8047L33.7302 15.695V16.563C33.7234 16.6636 33.7332 16.7646 33.7593 16.862C33.7793 16.9073 33.8157 16.9434 33.8613 16.963C33.9526 16.9911 34.0484 17.0023 34.1438 16.996H34.3156V17.6678H31.9447V16.9969H32.0719C32.1786 17.0045 32.2858 16.993 32.3884 16.963C32.4363 16.9398 32.4742 16.9001 32.4952 16.8513C32.5257 16.7491 32.5375 16.6422 32.5302 16.5358V15.7756L31.2389 13.8047C31.1728 13.6882 31.0804 13.5888 30.969 13.5144C30.8621 13.4823 30.7503 13.4694 30.6389 13.4765V12.8057Z" fill="white"/>
<path fill-rule="evenodd" clip-rule="evenodd" d="M29.5244 45.3262L30.7487 45.3378V48.6873H29.5244V45.3262Z" fill="#E6E6E6"/>
<path opacity="0.33" d="M29.4988 59.9902L29.549 48.6874L30.7742 48.6928L30.724 59.9957L29.4988 59.9902Z" fill="white"/>
<path fill-rule="evenodd" clip-rule="evenodd" d="M8.82129 51.2477C10.0869 48.7091 12.1829 46.6799 14.7611 45.4972C18.7961 43.7622 24.0699 42.0166 24.0854 42.0117L24.3961 42.7923C24.3815 42.7972 19.098 44.5302 15.0873 46.2544C12.6306 47.4275 10.6334 49.3837 9.40964 51.8156L8.82129 51.2477Z" fill="#E6E6E6"/>
<path fill-rule="evenodd" clip-rule="evenodd" d="M50.903 51.5188C49.6377 48.9816 47.5423 46.9538 44.9651 45.7722C40.9302 44.0372 36.4476 42.5586 36.4331 42.5547L36.0525 43.3091C36.0671 43.3139 40.6292 44.8061 44.6389 46.5304C47.0925 47.6994 49.0878 49.6509 50.3108 52.078L50.6749 51.7382L50.903 51.5188Z" fill="#E6E6E6"/>
</svg>
