<svg width="43" height="40" viewBox="0 0 43 40" fill="none" xmlns="http://www.w3.org/2000/svg">
<path d="M41.265 17.2156L41.2507 17.2089L2.98788 0.175667C2.66605 0.0310932 2.31585 -0.0256068 1.9686 0.0106388C1.62136 0.0468844 1.2879 0.174945 0.998052 0.383366C0.691823 0.598727 0.440283 0.892421 0.266065 1.23802C0.0918469 1.58363 0.000416686 1.97029 4.89181e-07 2.36324V13.2568C0.000170653 13.794 0.174936 14.3143 0.494175 14.728C0.813413 15.1418 1.25712 15.423 1.74883 15.5233L22.6174 19.6647C22.6994 19.6814 22.7734 19.7283 22.8267 19.7973C22.8799 19.8663 22.909 19.9531 22.909 20.0426C22.909 20.1322 22.8799 20.219 22.8267 20.288C22.7734 20.357 22.6994 20.4039 22.6174 20.4205L1.74973 24.562C1.25816 24.662 0.814472 24.9429 0.495091 25.3562C0.175709 25.7696 0.000627161 26.2895 4.89181e-07 26.8265V37.722C-0.000237445 38.0973 0.0863254 38.4667 0.251921 38.7971C0.417517 39.1276 0.656965 39.4087 0.948777 39.6154C1.2998 39.8657 1.71174 39.9995 2.13318 40C2.42616 39.9997 2.71614 39.9366 2.98609 39.8144L41.248 22.8783L41.265 22.8697C41.7801 22.6321 42.2189 22.2377 42.5273 21.7352C42.8357 21.2328 43 20.6443 43 20.0426C43 19.441 42.8357 18.8525 42.5273 18.3501C42.2189 17.8476 41.7801 17.4532 41.265 17.2156Z" fill="white"/>
</svg>
