<svg width="150" height="36" viewBox="0 0 150 36" fill="none" xmlns="http://www.w3.org/2000/svg">
<path d="M15.9645 6.52946C16.2925 5.76061 16.4565 5.37618 16.6849 5.2578C16.8832 5.15495 17.1161 5.15495 17.3145 5.2578C17.5428 5.37618 17.7069 5.76061 18.0349 6.52946L20.6472 12.6534C20.7442 12.8807 20.7927 12.9944 20.8678 13.0814C20.9341 13.1584 21.0152 13.22 21.1058 13.2622C21.2082 13.3098 21.3266 13.3229 21.5635 13.349L27.9446 14.0527C28.7457 14.1411 29.1462 14.1853 29.3246 14.3756C29.4794 14.541 29.5514 14.7725 29.5191 15.0014C29.4819 15.2649 29.1827 15.5466 28.5843 16.1102L23.8177 20.5988C23.6409 20.7653 23.5523 20.8487 23.4964 20.9501C23.4468 21.0399 23.4158 21.1395 23.4054 21.2426C23.3937 21.3591 23.4183 21.4808 23.4678 21.7243L24.7992 28.2831C24.9663 29.1066 25.0499 29.5183 24.9318 29.7543C24.829 29.9594 24.6406 30.1024 24.4223 30.1411C24.171 30.1855 23.8221 29.9753 23.1242 29.5547L17.5659 26.2047C17.3597 26.0804 17.2565 26.0184 17.1469 25.994C17.0498 25.9725 16.9495 25.9725 16.8525 25.994C16.7429 26.0184 16.6397 26.0804 16.4335 26.2047L10.8752 29.5547C10.1774 29.9753 9.82846 30.1855 9.57713 30.1411C9.35881 30.1024 9.17033 29.9594 9.06771 29.7543C8.94957 29.5183 9.03314 29.1066 9.2003 28.2831L10.5316 21.7243C10.581 21.4808 10.6057 21.3591 10.594 21.2426C10.5836 21.1395 10.5526 21.0399 10.5031 20.9501C10.447 20.8487 10.3586 20.7653 10.1817 20.5988L5.41513 16.1102C4.81672 15.5466 4.5175 15.2649 4.4803 15.0014C4.448 14.7725 4.51998 14.541 4.67488 14.3756C4.85321 14.1853 5.25377 14.1411 6.0549 14.0527L12.436 13.349C12.6728 13.3229 12.7912 13.3098 12.8936 13.2622C12.9842 13.22 13.0653 13.1584 13.1317 13.0814C13.2067 12.9944 13.2552 12.8807 13.3522 12.6534L15.9645 6.52946Z" fill="#FFC962" stroke="#FFC962" stroke-width="2" stroke-linecap="round" stroke-linejoin="round"/>
<path d="M134.529 6.52946C134.857 5.76061 135.021 5.37618 135.249 5.2578C135.447 5.15495 135.68 5.15495 135.879 5.2578C136.107 5.37618 136.271 5.76061 136.599 6.52946L139.211 12.6534C139.308 12.8807 139.357 12.9944 139.432 13.0814C139.498 13.1584 139.579 13.22 139.67 13.2622C139.772 13.3098 139.891 13.3229 140.128 13.349L146.509 14.0527C147.31 14.1411 147.71 14.1853 147.889 14.3756C148.044 14.541 148.116 14.7725 148.083 15.0014C148.046 15.2649 147.747 15.5466 147.148 16.1102L142.382 20.5988C142.205 20.7653 142.116 20.8487 142.061 20.9501C142.011 21.0399 141.98 21.1395 141.97 21.2426C141.958 21.3591 141.982 21.4808 142.032 21.7243L143.363 28.2831C143.53 29.1066 143.614 29.5183 143.496 29.7543C143.393 29.9594 143.205 30.1024 142.986 30.1411C142.735 30.1855 142.386 29.9753 141.688 29.5547L136.13 26.2047C135.924 26.0804 135.821 26.0184 135.711 25.994C135.614 25.9725 135.514 25.9725 135.417 25.994C135.307 26.0184 135.204 26.0804 134.998 26.2047L129.439 29.5547C128.742 29.9753 128.393 30.1855 128.141 30.1411C127.923 30.1024 127.734 29.9594 127.632 29.7543C127.514 29.5183 127.597 29.1066 127.764 28.2831L129.096 21.7243C129.145 21.4808 129.17 21.3591 129.158 21.2426C129.148 21.1395 129.117 21.0399 129.067 20.9501C129.011 20.8487 128.923 20.7653 128.746 20.5988L123.979 16.1102C123.381 15.5466 123.082 15.2649 123.044 15.0014C123.012 14.7725 123.084 14.541 123.239 14.3756C123.417 14.1853 123.818 14.1411 124.619 14.0527L131 13.349C131.237 13.3229 131.355 13.3098 131.458 13.2622C131.548 13.22 131.629 13.1584 131.696 13.0814C131.771 12.9944 131.819 12.8807 131.916 12.6534L134.529 6.52946Z" fill="#FFC962" stroke="#FFC962" stroke-width="2" stroke-linecap="round" stroke-linejoin="round"/>
<path d="M104.888 6.52946C105.216 5.76061 105.38 5.37618 105.608 5.2578C105.806 5.15495 106.039 5.15495 106.238 5.2578C106.466 5.37618 106.63 5.76061 106.958 6.52946L109.57 12.6534C109.667 12.8807 109.716 12.9944 109.791 13.0814C109.857 13.1584 109.938 13.22 110.029 13.2622C110.131 13.3098 110.25 13.3229 110.487 13.349L116.868 14.0527C117.669 14.1411 118.069 14.1853 118.248 14.3756C118.402 14.541 118.474 14.7725 118.442 15.0014C118.405 15.2649 118.106 15.5466 117.507 16.1102L112.741 20.5988C112.564 20.7653 112.475 20.8487 112.419 20.9501C112.37 21.0399 112.339 21.1395 112.329 21.2426C112.317 21.3591 112.341 21.4808 112.391 21.7243L113.722 28.2831C113.889 29.1066 113.973 29.5183 113.855 29.7543C113.752 29.9594 113.564 30.1024 113.345 30.1411C113.094 30.1855 112.745 29.9753 112.047 29.5547L106.489 26.2047C106.283 26.0804 106.18 26.0184 106.07 25.994C105.973 25.9725 105.873 25.9725 105.776 25.994C105.666 26.0184 105.563 26.0804 105.357 26.2047L99.7983 29.5547C99.1005 29.9753 98.7516 30.1855 98.5002 30.1411C98.2819 30.1024 98.0934 29.9594 97.9908 29.7543C97.8727 29.5183 97.9562 29.1066 98.1234 28.2831L99.4547 21.7243C99.5041 21.4808 99.5288 21.3591 99.5171 21.2426C99.5067 21.1395 99.4757 21.0399 99.4262 20.9501C99.3701 20.8487 99.2817 20.7653 99.1048 20.5988L94.3382 16.1102C93.7398 15.5466 93.4406 15.2649 93.4034 15.0014C93.3711 14.7725 93.4431 14.541 93.598 14.3756C93.7763 14.1853 94.1769 14.1411 94.978 14.0527L101.359 13.349C101.596 13.3229 101.714 13.3098 101.817 13.2622C101.907 13.22 101.988 13.1584 102.055 13.0814C102.13 12.9944 102.178 12.8807 102.275 12.6534L104.888 6.52946Z" fill="#FFC962" stroke="#FFC962" stroke-width="2" stroke-linecap="round" stroke-linejoin="round"/>
<path d="M75.2466 6.52946C75.5745 5.76061 75.7386 5.37618 75.967 5.2578C76.1653 5.15495 76.3982 5.15495 76.5965 5.2578C76.8249 5.37618 76.9889 5.76061 77.3169 6.52946L79.9292 12.6534C80.0263 12.8807 80.0747 12.9944 80.1498 13.0814C80.2161 13.1584 80.2973 13.22 80.3878 13.2622C80.4902 13.3098 80.6087 13.3229 80.8455 13.349L87.2266 14.0527C88.0277 14.1411 88.4282 14.1853 88.6066 14.3756C88.7614 14.541 88.8334 14.7725 88.8011 15.0014C88.764 15.2649 88.4648 15.5466 87.8664 16.1102L83.0997 20.5988C82.9229 20.7653 82.8344 20.8487 82.7784 20.9501C82.7288 21.0399 82.6978 21.1395 82.6875 21.2426C82.6757 21.3591 82.7004 21.4808 82.7498 21.7243L84.0812 28.2831C84.2484 29.1066 84.3319 29.5183 84.2138 29.7543C84.1111 29.9594 83.9227 30.1024 83.7044 30.1411C83.453 30.1855 83.1041 29.9753 82.4063 29.5547L76.848 26.2047C76.6417 26.0804 76.5386 26.0184 76.4289 25.9939C76.3319 25.9725 76.2316 25.9725 76.1346 25.9939C76.0249 26.0184 75.9218 26.0804 75.7155 26.2047L70.1572 29.5547C69.4594 29.9753 69.1105 30.1855 68.8592 30.1411C68.6408 30.1024 68.4524 29.9594 68.3498 29.7543C68.2316 29.5183 68.3152 29.1066 68.4823 28.2831L69.8137 21.7243C69.8631 21.4808 69.8878 21.3591 69.8761 21.2426C69.8657 21.1395 69.8347 21.0399 69.7851 20.9501C69.7291 20.8487 69.6406 20.7653 69.4637 20.5988L64.6972 16.1102C64.0988 15.5466 63.7995 15.2649 63.7623 15.0014C63.73 14.7725 63.802 14.541 63.9569 14.3756C64.1353 14.1853 64.5358 14.1411 65.3369 14.0527L71.718 13.349C71.9549 13.3229 72.0733 13.3098 72.1757 13.2622C72.2663 13.22 72.3474 13.1584 72.4138 13.0814C72.4888 12.9944 72.5373 12.8807 72.6342 12.6534L75.2466 6.52946Z" fill="#FFC962" stroke="#FFC962" stroke-width="2" stroke-linecap="round" stroke-linejoin="round"/>
<path d="M45.6056 6.52946C45.9335 5.76061 46.0976 5.37618 46.326 5.2578C46.5243 5.15495 46.7572 5.15495 46.9555 5.2578C47.1839 5.37618 47.3479 5.76061 47.6759 6.52946L50.2882 12.6534C50.3853 12.8807 50.4337 12.9944 50.5088 13.0814C50.5751 13.1584 50.6563 13.22 50.7468 13.2622C50.8492 13.3098 50.9677 13.3229 51.2045 13.349L57.5856 14.0527C58.3868 14.1411 58.7872 14.1853 58.9656 14.3756C59.1204 14.541 59.1924 14.7725 59.1601 15.0014C59.123 15.2649 58.8238 15.5466 58.2254 16.1102L53.4587 20.5988C53.2819 20.7653 53.1934 20.8487 53.1374 20.9501C53.0879 21.0399 53.0568 21.1395 53.0465 21.2426C53.0347 21.3591 53.0594 21.4808 53.1088 21.7243L54.4402 28.2831C54.6074 29.1066 54.691 29.5183 54.5728 29.7543C54.4701 29.9594 54.2817 30.1024 54.0634 30.1411C53.8121 30.1855 53.4631 29.9753 52.7653 29.5547L47.207 26.2047C47.0007 26.0804 46.8976 26.0184 46.7879 25.994C46.6909 25.9725 46.5906 25.9725 46.4936 25.994C46.3839 26.0184 46.2808 26.0804 46.0745 26.2047L40.5162 29.5547C39.8184 29.9753 39.4695 30.1855 39.2182 30.1411C38.9999 30.1024 38.8114 29.9594 38.7088 29.7543C38.5906 29.5183 38.6742 29.1066 38.8413 28.2831L40.1727 21.7243C40.2221 21.4808 40.2468 21.3591 40.2351 21.2426C40.2247 21.1395 40.1937 21.0399 40.1441 20.9501C40.0881 20.8487 39.9996 20.7653 39.8227 20.5988L35.0562 16.1102C34.4578 15.5466 34.1586 15.2649 34.1214 15.0014C34.0891 14.7725 34.161 14.541 34.3159 14.3756C34.4943 14.1853 34.8948 14.1411 35.696 14.0527L42.077 13.349C42.3139 13.3229 42.4323 13.3098 42.5347 13.2622C42.6253 13.22 42.7064 13.1584 42.7728 13.0814C42.8478 12.9944 42.8963 12.8807 42.9932 12.6534L45.6056 6.52946Z" fill="#FFC962" stroke="#FFC962" stroke-width="2" stroke-linecap="round" stroke-linejoin="round"/>
</svg>
