<svg width="61" height="34" viewBox="0 0 61 34" fill="none" xmlns="http://www.w3.org/2000/svg">
<path d="M17.9518 0.505859C17.9518 1.84238 16.8692 2.92508 15.5337 2.92508C14.1972 2.92508 13.1145 1.84238 13.1145 0.505859H0.776611V33.1679H13.1146C13.1146 31.8314 14.1973 30.7487 15.5338 30.7487C16.8693 30.7487 17.952 31.8314 17.952 33.1679H60.7766V0.505859H17.9518ZM15.5338 27.4223C14.1973 27.4223 13.1146 26.3387 13.1146 25.0022C13.1146 23.6656 14.1973 22.5829 15.5338 22.5829C16.8693 22.5829 17.952 23.6656 17.952 25.0022C17.9518 26.3387 16.8693 27.4223 15.5338 27.4223ZM15.5338 19.2567C14.1973 19.2567 13.1146 18.174 13.1146 16.8375C13.1146 15.5019 14.1973 14.4173 15.5338 14.4173C16.8693 14.4173 17.952 15.5019 17.952 16.8375C17.9518 18.174 16.8693 19.2567 15.5338 19.2567ZM15.5338 11.0908C14.1973 11.0908 13.1146 10.0081 13.1146 8.6716C13.1146 7.33613 14.1973 6.25238 15.5338 6.25238C16.8693 6.25238 17.952 7.33613 17.952 8.6716C17.9518 10.0081 16.8693 11.0908 15.5338 11.0908Z" fill="black"/>
</svg>
