<svg width="47" height="44" viewBox="0 0 47 44" fill="none" xmlns="http://www.w3.org/2000/svg">
<g clip-path="url(#clip0_47_614)">
<path d="M44.4248 30.25C43.0881 30.25 41.5062 28.7595 41.5062 27.5V13.75C41.5062 6.16894 34.9589 0 26.9128 0C18.8668 0 12.3195 6.16894 12.3195 13.75V27.5C12.3195 28.7327 10.7091 30.25 9.40084 30.25C7.78755 30.25 6.48218 31.4799 6.48218 33C6.48218 34.5201 7.78755 35.75 9.40084 35.75H44.4248C46.0381 35.75 47.3435 34.5201 47.3435 33C47.3435 31.4799 46.0381 30.25 44.4248 30.25Z" fill="#B5B5B5"/>
<path d="M26.9129 44C30.1366 44 32.7502 41.5374 32.7502 38.5H21.0756C21.0756 41.5374 23.6892 44 26.9129 44Z" fill="#B5B5B5"/>
</g>
<defs>
<clipPath id="clip0_47_614">
<rect width="46.6986" height="44" fill="white" transform="translate(0.255737)"/>
</clipPath>
</defs>
</svg>
