<svg width="54" height="53" viewBox="0 0 54 53" fill="none" xmlns="http://www.w3.org/2000/svg">
<path d="M47.6395 36.1276C45.6666 36.1276 44.7923 35.3768 43.5592 34.3168C42.1917 33.1684 40.4879 31.7109 37.282 31.7109C34.0537 31.7109 32.3723 33.1684 31.0047 34.3168C29.7717 35.3768 28.875 36.1276 26.9021 36.1276C24.9517 36.1276 24.0549 35.3768 22.8219 34.3168C21.4544 33.1684 19.7506 31.7109 16.5447 31.7109C13.3164 31.7109 11.6126 33.1684 10.245 34.3168C9.012 35.3768 8.13765 36.1276 6.1648 36.1276C5.24564 36.1276 4.4834 36.8784 4.4834 37.7839C4.4834 38.7114 5.24564 39.4401 6.1648 39.4401C9.3931 39.4401 11.0745 38.0047 12.442 36.8343C13.6751 35.7743 14.5718 35.0234 16.5447 35.0234C18.5175 35.0234 19.3919 35.7743 20.6249 36.8343C21.9925 38.0047 23.6963 39.4401 26.9021 39.4401C30.1304 39.4401 31.8342 38.0047 33.2018 36.8343C34.4348 35.7743 35.3092 35.0234 37.282 35.0234C39.2324 35.0234 40.1292 35.7743 41.3622 36.8343C42.7298 38.0047 44.4336 39.4401 47.6395 39.4401C48.5586 39.4401 49.3209 38.7114 49.3209 37.7839C49.3209 36.8784 48.5586 36.1276 47.6395 36.1276Z" fill="#141416"/>
<path d="M47.6395 27.0309C45.6666 27.0309 44.7923 26.258 43.5592 25.2201C42.1917 24.0497 40.4879 22.6143 37.282 22.6143C34.0537 22.6143 32.3723 24.0497 31.0047 25.2201C29.7717 26.258 28.875 27.0309 26.9021 27.0309C24.9517 27.0309 24.0549 26.258 22.8219 25.2201C21.4544 24.0497 19.7506 22.6143 16.5447 22.6143C13.3164 22.6143 11.6126 24.0497 10.245 25.2201C9.012 26.258 8.13765 27.0309 6.1648 27.0309C5.24564 27.0309 4.4834 27.7597 4.4834 28.6872C4.4834 29.5926 5.24564 30.3434 6.1648 30.3434C9.3931 30.3434 11.0745 28.8859 12.442 27.7155C13.6751 26.6776 14.5718 25.9268 16.5447 25.9268C18.5175 25.9268 19.3919 26.6776 20.6249 27.7155C21.9925 28.8859 23.6963 30.3434 26.9021 30.3434C30.1304 30.3434 31.8342 28.8859 33.2018 27.7155C34.4348 26.6776 35.3092 25.9268 37.282 25.9268C39.2324 25.9268 40.1292 26.6776 41.3622 27.7155C42.7298 28.8859 44.4336 30.3434 47.6395 30.3434C48.5586 30.3434 49.3209 29.5926 49.3209 28.6872C49.3209 27.7597 48.5586 27.0309 47.6395 27.0309Z" fill="#141416"/>
<path d="M6.1648 21.2887C9.3931 21.2887 11.0745 19.8312 12.442 18.6829C13.675 17.6229 14.5718 16.8721 16.5447 16.8721C18.5175 16.8721 19.3919 17.6229 20.6249 18.6829C21.9925 19.8312 23.6962 21.2887 26.9021 21.2887C30.1304 21.2887 31.8342 19.8312 33.2018 18.6829C34.4348 17.6229 35.3092 16.8721 37.282 16.8721C39.2324 16.8721 40.1292 17.6229 41.3622 18.6829C42.7298 19.8312 44.4336 21.2887 47.6395 21.2887C48.5586 21.2887 49.3209 20.5379 49.3209 19.6325C49.3209 18.705 48.5586 17.9762 47.6395 17.9762C45.6666 17.9762 44.7923 17.2254 43.5592 16.1654C42.1917 14.995 40.4879 13.5596 37.282 13.5596C34.0537 13.5596 32.3723 14.995 31.0047 16.1654C29.7717 17.2254 28.875 17.9762 26.9021 17.9762C24.9517 17.9762 24.0549 17.2254 22.8219 16.1654C21.4544 14.995 19.7506 13.5596 16.5447 13.5596C13.3164 13.5596 11.6126 14.995 10.245 16.1654C9.012 17.2254 8.13765 17.9762 6.1648 17.9762C5.24564 17.9762 4.4834 18.705 4.4834 19.6325C4.4834 20.5379 5.24564 21.2887 6.1648 21.2887Z" fill="#141416"/>
</svg>
