<svg width="30" height="28" viewBox="0 0 32 28" fill="none" xmlns="http://www.w3.org/2000/svg">
<path d="M28.4031 4.13397L28.4025 4.13342C27.6008 3.36936 26.6545 2.76121 25.6147 2.34292L25.6138 2.34256C24.5352 1.90696 23.3777 1.68375 22.2086 1.68636L22.207 1.68637C20.5646 1.68637 18.9648 2.12361 17.5767 2.94695L17.5766 2.94696C17.2446 3.1439 16.9298 3.3598 16.632 3.59465L16.1893 3.94374L15.7466 3.59465C15.4488 3.3598 15.134 3.1439 14.8019 2.94696L14.8019 2.94695C13.4137 2.12361 11.8139 1.68637 10.1716 1.68637C8.98785 1.68637 7.84446 1.90653 6.76478 2.34256L6.76402 2.34287C5.72042 2.76293 4.78178 3.3662 3.97584 4.13363L3.97485 4.13457C3.17426 4.89401 2.53585 5.79771 2.09479 6.79391L28.4031 4.13397ZM28.4031 4.13397C29.2028 4.89445 29.8413 5.79813 30.2838 6.79391L28.4031 4.13397ZM30.2841 6.79478C30.7426 7.83093 30.9759 8.92807 30.9726 10.0575V10.0595C30.9726 11.1205 30.7497 12.2424 30.2937 13.4017L30.2931 13.4033C29.9151 14.3713 29.3589 15.3902 28.6407 16.4325C27.5038 18.0803 25.9269 19.8179 23.9473 21.5948C20.6588 24.5441 17.4048 26.5806 17.2788 26.6591L17.2787 26.6592L16.4296 27.1886C16.4293 27.1888 16.4291 27.189 16.4288 27.1891C16.2831 27.2791 16.0914 27.279 15.9458 27.1889C15.9457 27.1888 15.9455 27.1887 15.9454 27.1886L15.0963 26.6592L15.0964 26.6591L15.0851 26.6524L15.085 26.6523C15.0843 26.6519 15.0802 26.6494 15.0716 26.6441L15.0351 26.6213C15.0044 26.6021 14.962 26.5753 14.9086 26.5412C14.8017 26.4729 14.6516 26.3758 14.4644 26.2519C14.09 26.004 13.5678 25.6495 12.9466 25.2049C11.7029 24.3147 10.068 23.0675 8.42798 21.595L8.4279 21.595C6.44814 19.818 4.87117 18.0803 3.73423 16.4325C3.01693 15.3915 2.46344 14.3718 2.08108 13.4013C1.62517 12.2422 1.40241 11.1204 1.40241 10.0595C1.40241 8.92844 1.63604 7.83034 2.09476 6.79397L30.2841 6.79478Z" stroke="#888888" stroke-width="1.42981"/>
</svg>
