<svg width="150" height="33" viewBox="0 0 150 33" fill="none" xmlns="http://www.w3.org/2000/svg">
<path d="M15.9645 6.06533C16.2925 5.35118 16.4565 4.99411 16.6849 4.88415C16.8832 4.78862 17.1161 4.78862 17.3145 4.88415C17.5428 4.99411 17.7069 5.35118 18.0349 6.06533L20.6472 11.7536C20.7442 11.9647 20.7927 12.0703 20.8678 12.1511C20.9341 12.2227 21.0152 12.2799 21.1058 12.319C21.2082 12.3633 21.3266 12.3754 21.5635 12.3997L27.9446 13.0534C28.7457 13.1354 29.1462 13.1765 29.3246 13.3533C29.4794 13.5068 29.5514 13.7219 29.5191 13.9345C29.4819 14.1793 29.1827 14.4409 28.5843 14.9644L23.8177 19.1337C23.6409 19.2884 23.5523 19.3658 23.4964 19.46C23.4468 19.5434 23.4158 19.636 23.4054 19.7317C23.3937 19.8399 23.4183 19.9529 23.4678 20.1791L24.7992 26.2713C24.9663 27.0362 25.0499 27.4186 24.9318 27.6378C24.829 27.8284 24.6406 27.9612 24.4223 27.9971C24.171 28.0383 23.8221 27.8431 23.1242 27.4524L17.5659 24.3408C17.3597 24.2253 17.2565 24.1677 17.1469 24.145C17.0498 24.1251 16.9495 24.1251 16.8525 24.145C16.7429 24.1677 16.6397 24.2253 16.4335 24.3408L10.8752 27.4524C10.1774 27.8431 9.82846 28.0383 9.57713 27.9971C9.35881 27.9612 9.17033 27.8284 9.06771 27.6378C8.94957 27.4186 9.03314 27.0362 9.2003 26.2713L10.5316 20.1791C10.581 19.9529 10.6057 19.8399 10.594 19.7317C10.5836 19.636 10.5526 19.5434 10.5031 19.46C10.447 19.3658 10.3586 19.2884 10.1817 19.1337L5.41513 14.9644C4.81672 14.4409 4.5175 14.1793 4.4803 13.9345C4.448 13.7219 4.51998 13.5068 4.67488 13.3533C4.85321 13.1765 5.25377 13.1354 6.0549 13.0534L12.436 12.3997C12.6728 12.3754 12.7912 12.3633 12.8936 12.319C12.9842 12.2799 13.0653 12.2227 13.1317 12.1511C13.2067 12.0703 13.2552 11.9647 13.3522 11.7536L15.9645 6.06533Z" stroke="#9596A6" stroke-width="2" stroke-linecap="round" stroke-linejoin="round"/>
<path d="M134.529 6.06533C134.857 5.35118 135.021 4.99411 135.249 4.88415C135.447 4.78862 135.68 4.78862 135.879 4.88415C136.107 4.99411 136.271 5.35118 136.599 6.06533L139.211 11.7536C139.308 11.9647 139.357 12.0703 139.432 12.1511C139.498 12.2227 139.579 12.2799 139.67 12.319C139.772 12.3633 139.891 12.3754 140.128 12.3997L146.509 13.0534C147.31 13.1354 147.71 13.1765 147.889 13.3533C148.044 13.5068 148.115 13.7219 148.083 13.9345C148.046 14.1793 147.747 14.4409 147.148 14.9644L142.382 19.1337C142.205 19.2884 142.116 19.3658 142.061 19.46C142.011 19.5434 141.98 19.636 141.97 19.7317C141.958 19.8399 141.982 19.9529 142.032 20.1791L143.363 26.2713C143.53 27.0362 143.614 27.4186 143.496 27.6378C143.393 27.8284 143.205 27.9612 142.986 27.9971C142.735 28.0383 142.386 27.8431 141.688 27.4524L136.13 24.3408C135.924 24.2253 135.821 24.1677 135.711 24.145C135.614 24.1251 135.514 24.1251 135.417 24.145C135.307 24.1677 135.204 24.2253 134.998 24.3408L129.439 27.4524C128.741 27.8431 128.393 28.0383 128.141 27.9971C127.923 27.9612 127.734 27.8284 127.632 27.6378C127.514 27.4186 127.597 27.0362 127.764 26.2713L129.096 20.1791C129.145 19.9529 129.17 19.8399 129.158 19.7317C129.148 19.636 129.117 19.5434 129.067 19.46C129.011 19.3658 128.923 19.2884 128.746 19.1337L123.979 14.9644C123.381 14.4409 123.082 14.1793 123.044 13.9345C123.012 13.7219 123.084 13.5068 123.239 13.3533C123.417 13.1765 123.818 13.1354 124.619 13.0534L131 12.3997C131.237 12.3754 131.355 12.3633 131.458 12.319C131.548 12.2799 131.629 12.2227 131.696 12.1511C131.771 12.0703 131.819 11.9647 131.916 11.7536L134.529 6.06533Z" stroke="#9596A6" stroke-width="2" stroke-linecap="round" stroke-linejoin="round"/>
<path d="M104.888 6.06533C105.216 5.35118 105.38 4.99411 105.608 4.88415C105.806 4.78862 106.039 4.78862 106.238 4.88415C106.466 4.99411 106.63 5.35118 106.958 6.06533L109.57 11.7536C109.667 11.9647 109.716 12.0703 109.791 12.1511C109.857 12.2227 109.938 12.2799 110.029 12.319C110.131 12.3633 110.25 12.3754 110.487 12.3997L116.868 13.0534C117.669 13.1354 118.069 13.1765 118.248 13.3533C118.402 13.5068 118.474 13.7219 118.442 13.9345C118.405 14.1793 118.106 14.4409 117.507 14.9644L112.741 19.1337C112.564 19.2884 112.475 19.3658 112.419 19.46C112.37 19.5434 112.339 19.636 112.329 19.7317C112.317 19.8399 112.341 19.9529 112.391 20.1791L113.722 26.2713C113.889 27.0362 113.973 27.4186 113.855 27.6378C113.752 27.8284 113.564 27.9612 113.345 27.9971C113.094 28.0383 112.745 27.8431 112.047 27.4524L106.489 24.3408C106.283 24.2253 106.18 24.1677 106.07 24.145C105.973 24.1251 105.873 24.1251 105.776 24.145C105.666 24.1677 105.563 24.2253 105.357 24.3408L99.7983 27.4524C99.1005 27.8431 98.7516 28.0383 98.5002 27.9971C98.2819 27.9612 98.0934 27.8284 97.9908 27.6378C97.8727 27.4186 97.9562 27.0362 98.1234 26.2713L99.4547 20.1791C99.5041 19.9529 99.5288 19.8399 99.5171 19.7317C99.5067 19.636 99.4757 19.5434 99.4262 19.46C99.3701 19.3658 99.2817 19.2884 99.1048 19.1337L94.3382 14.9644C93.7398 14.4409 93.4406 14.1793 93.4034 13.9345C93.3711 13.7219 93.4431 13.5068 93.598 13.3533C93.7763 13.1765 94.1769 13.1354 94.978 13.0534L101.359 12.3997C101.596 12.3754 101.714 12.3633 101.817 12.319C101.907 12.2799 101.988 12.2227 102.055 12.1511C102.13 12.0703 102.178 11.9647 102.275 11.7536L104.888 6.06533Z" stroke="#9596A6" stroke-width="2" stroke-linecap="round" stroke-linejoin="round"/>
<path d="M75.2466 6.06533C75.5745 5.35118 75.7386 4.99411 75.967 4.88415C76.1653 4.78862 76.3982 4.78862 76.5965 4.88415C76.8249 4.99411 76.9889 5.35118 77.3169 6.06533L79.9292 11.7536C80.0263 11.9647 80.0747 12.0703 80.1498 12.1511C80.2161 12.2227 80.2973 12.2799 80.3878 12.319C80.4902 12.3633 80.6087 12.3754 80.8455 12.3997L87.2266 13.0534C88.0277 13.1354 88.4282 13.1765 88.6066 13.3533C88.7614 13.5068 88.8334 13.7219 88.8011 13.9345C88.764 14.1793 88.4648 14.4409 87.8664 14.9644L83.0997 19.1337C82.9229 19.2884 82.8344 19.3658 82.7784 19.46C82.7288 19.5434 82.6978 19.636 82.6875 19.7317C82.6757 19.8399 82.7004 19.9529 82.7498 20.1791L84.0812 26.2713C84.2484 27.0362 84.332 27.4186 84.2138 27.6378C84.1111 27.8284 83.9227 27.9612 83.7044 27.9971C83.4531 28.0383 83.1041 27.8431 82.4063 27.4524L76.848 24.3408C76.6417 24.2253 76.5386 24.1677 76.4289 24.145C76.3319 24.1251 76.2316 24.1251 76.1346 24.145C76.0249 24.1677 75.9218 24.2253 75.7155 24.3408L70.1572 27.4524C69.4594 27.8431 69.1105 28.0383 68.8592 27.9971C68.6409 27.9612 68.4524 27.8284 68.3498 27.6378C68.2316 27.4186 68.3152 27.0362 68.4823 26.2713L69.8137 20.1791C69.8631 19.9529 69.8878 19.8399 69.8761 19.7317C69.8657 19.636 69.8347 19.5434 69.7851 19.46C69.7291 19.3658 69.6406 19.2884 69.4637 19.1337L64.6972 14.9644C64.0988 14.4409 63.7995 14.1793 63.7623 13.9345C63.73 13.7219 63.802 13.5068 63.9569 13.3533C64.1353 13.1765 64.5358 13.1354 65.3369 13.0534L71.718 12.3997C71.9549 12.3754 72.0733 12.3633 72.1757 12.319C72.2663 12.2799 72.3474 12.2227 72.4138 12.1511C72.4888 12.0703 72.5373 11.9647 72.6342 11.7536L75.2466 6.06533Z" stroke="#9596A6" stroke-width="2" stroke-linecap="round" stroke-linejoin="round"/>
<path d="M45.6056 6.06533C45.9335 5.35118 46.0976 4.99411 46.326 4.88415C46.5243 4.78862 46.7572 4.78862 46.9555 4.88415C47.1839 4.99411 47.3479 5.35118 47.6759 6.06533L50.2882 11.7536C50.3853 11.9647 50.4337 12.0703 50.5088 12.1511C50.5751 12.2227 50.6563 12.2799 50.7468 12.319C50.8492 12.3633 50.9677 12.3754 51.2045 12.3997L57.5856 13.0534C58.3868 13.1354 58.7872 13.1765 58.9656 13.3533C59.1204 13.5068 59.1924 13.7219 59.1601 13.9345C59.123 14.1793 58.8238 14.4409 58.2254 14.9644L53.4587 19.1337C53.2819 19.2884 53.1934 19.3658 53.1374 19.46C53.0879 19.5434 53.0568 19.636 53.0465 19.7317C53.0347 19.8399 53.0594 19.9529 53.1088 20.1791L54.4402 26.2713C54.6074 27.0362 54.691 27.4186 54.5728 27.6378C54.4701 27.8284 54.2817 27.9612 54.0634 27.9971C53.8121 28.0383 53.4631 27.8431 52.7653 27.4524L47.207 24.3408C47.0007 24.2253 46.8976 24.1677 46.7879 24.145C46.6909 24.1251 46.5906 24.1251 46.4936 24.145C46.3839 24.1677 46.2808 24.2253 46.0745 24.3408L40.5162 27.4524C39.8184 27.8431 39.4695 28.0383 39.2182 27.9971C38.9999 27.9612 38.8114 27.8284 38.7088 27.6378C38.5906 27.4186 38.6742 27.0362 38.8413 26.2713L40.1727 20.1791C40.2221 19.9529 40.2468 19.8399 40.2351 19.7317C40.2247 19.636 40.1937 19.5434 40.1441 19.46C40.0881 19.3658 39.9996 19.2884 39.8227 19.1337L35.0562 14.9644C34.4578 14.4409 34.1586 14.1793 34.1214 13.9345C34.0891 13.7219 34.161 13.5068 34.3159 13.3533C34.4943 13.1765 34.8948 13.1354 35.696 13.0534L42.077 12.3997C42.3139 12.3754 42.4323 12.3633 42.5347 12.319C42.6253 12.2799 42.7064 12.2227 42.7728 12.1511C42.8478 12.0703 42.8963 11.9647 42.9932 11.7536L45.6056 6.06533Z" stroke="#9596A6" stroke-width="2" stroke-linecap="round" stroke-linejoin="round"/>
</svg>
