<svg width="44" height="45" viewBox="0 0 44 45" fill="none" xmlns="http://www.w3.org/2000/svg">
<g clip-path="url(#clip0_61_512)">
<path d="M43.5971 42.5845L30.2363 28.837C32.7264 25.7868 34.2265 21.862 34.2265 17.5771C34.2265 7.8684 26.532 -0.000976562 17.039 -0.000976562C7.546 -0.000976562 -0.148499 7.8684 -0.148499 17.5771C-0.148499 27.2859 7.546 35.1553 17.039 35.1553C21.351 35.1553 25.2918 33.5268 28.3099 30.8423L41.6515 44.5729C42.1878 45.1214 43.0595 45.1214 43.5971 44.5729C44.1348 44.0245 44.1334 43.1357 43.5971 42.5845ZM17.0404 32.3667C9.05437 32.3667 2.5795 25.7446 2.5795 17.5771C2.5795 9.40965 9.053 2.78762 17.0404 2.78762C25.0264 2.78762 31.4999 9.40824 31.4999 17.5771C31.4999 25.7461 25.0264 32.3667 17.0404 32.3667Z" fill="black"/>
</g>
<defs>
<clipPath id="clip0_61_512">
<rect width="44" height="45" fill="white"/>
</clipPath>
</defs>
</svg>
