<svg width="199" height="56" viewBox="0 0 199 56" fill="none" xmlns="http://www.w3.org/2000/svg">
<path d="M84.2426 18.1543C86.4369 18.1543 88.3619 18.5832 90.0176 19.4409C91.6933 20.2987 92.98 21.5255 93.8776 23.1214C94.7952 24.6973 95.254 26.5325 95.254 28.6271C95.254 30.7216 94.7952 32.5569 93.8776 34.1328C92.98 35.6887 91.6933 36.8956 90.0176 37.7534C88.3619 38.6112 86.4369 39.04 84.2426 39.04H76.9416V18.1543H84.2426ZM84.093 35.4793C86.2873 35.4793 87.9829 34.8808 89.1798 33.6839C90.3767 32.4871 90.9752 30.8014 90.9752 28.6271C90.9752 26.4527 90.3767 24.7571 89.1798 23.5403C87.9829 22.3035 86.2873 21.6851 84.093 21.6851H81.1307V35.4793H84.093ZM100.514 20.4882C99.7762 20.4882 99.1578 20.2588 98.6591 19.8C98.1804 19.3212 97.941 18.7328 97.941 18.0346C97.941 17.3364 98.1804 16.7579 98.6591 16.2991C99.1578 15.8203 99.7762 15.5809 100.514 15.5809C101.252 15.5809 101.861 15.8203 102.34 16.2991C102.838 16.7579 103.088 17.3364 103.088 18.0346C103.088 18.7328 102.838 19.3212 102.34 19.8C101.861 20.2588 101.252 20.4882 100.514 20.4882ZM102.579 22.4631V39.04H98.3898V22.4631H102.579ZM113.63 35.1801L117.819 22.4631H122.277L116.143 39.04H111.057L104.952 22.4631H109.441L113.63 35.1801ZM140.04 30.3925C140.04 30.9909 140 31.5295 139.921 32.0083H127.802C127.902 33.2052 128.321 34.1428 129.059 34.821C129.797 35.4992 130.705 35.8384 131.782 35.8384C133.338 35.8384 134.445 35.1701 135.103 33.8336H139.621C139.143 35.4294 138.225 36.746 136.868 37.7833C135.512 38.8007 133.846 39.3093 131.871 39.3093C130.276 39.3093 128.839 38.9602 127.563 38.2621C126.306 37.5439 125.318 36.5365 124.6 35.2399C123.902 33.9433 123.553 32.4472 123.553 30.7516C123.553 29.036 123.902 27.5299 124.6 26.2333C125.299 24.9367 126.276 23.9392 127.533 23.2411C128.789 22.5429 130.236 22.1938 131.871 22.1938C133.447 22.1938 134.854 22.5329 136.091 23.2111C137.347 23.8894 138.315 24.8569 138.993 26.1136C139.691 27.3504 140.04 28.7767 140.04 30.3925ZM135.702 29.1956C135.682 28.1184 135.293 27.2606 134.535 26.6223C133.777 25.964 132.849 25.6348 131.752 25.6348C130.714 25.6348 129.837 25.954 129.119 26.5924C128.42 27.2108 127.992 28.0785 127.832 29.1956H135.702ZM150.309 39.2495C148.853 39.2495 147.536 39.0001 146.359 38.5014C145.202 38.0027 144.285 37.2846 143.607 36.347C142.928 35.4095 142.579 34.3023 142.559 33.0257H147.048C147.108 33.8834 147.407 34.5617 147.945 35.0604C148.504 35.5591 149.262 35.8084 150.219 35.8084C151.197 35.8084 151.965 35.579 152.523 35.1202C153.082 34.6415 153.361 34.0231 153.361 33.265C153.361 32.6466 153.172 32.138 152.793 31.739C152.414 31.34 151.935 31.0308 151.357 30.8114C150.798 30.572 150.02 30.3127 149.023 30.0334C147.666 29.6345 146.559 29.2455 145.701 28.8665C144.863 28.4675 144.135 27.879 143.517 27.101C142.918 26.3031 142.619 25.2459 142.619 23.9293C142.619 22.6925 142.928 21.6153 143.547 20.6977C144.165 19.78 145.033 19.0819 146.15 18.6031C147.267 18.1044 148.544 17.855 149.98 17.855C152.134 17.855 153.88 18.3837 155.216 19.4409C156.573 20.4782 157.321 21.9345 157.461 23.8096H152.853C152.813 23.0914 152.504 22.503 151.925 22.0442C151.366 21.5654 150.618 21.326 149.681 21.326C148.863 21.326 148.205 21.5355 147.706 21.9544C147.227 22.3733 146.988 22.9817 146.988 23.7797C146.988 24.3382 147.167 24.807 147.526 25.186C147.905 25.5451 148.364 25.8443 148.903 26.0837C149.461 26.3031 150.239 26.5624 151.237 26.8617C152.593 27.2606 153.7 27.6596 154.558 28.0586C155.416 28.4575 156.154 29.056 156.772 29.8539C157.391 30.6518 157.7 31.6991 157.7 32.9957C157.7 34.1128 157.411 35.1501 156.832 36.1077C156.254 37.0652 155.406 37.8332 154.289 38.4117C153.172 38.9702 151.845 39.2495 150.309 39.2495ZM176.742 30.3925C176.742 30.9909 176.702 31.5295 176.622 32.0083H164.504C164.603 33.2052 165.022 34.1428 165.76 34.821C166.498 35.4992 167.406 35.8384 168.483 35.8384C170.039 35.8384 171.146 35.1701 171.805 33.8336H176.323C175.844 35.4294 174.927 36.746 173.57 37.7833C172.214 38.8007 170.548 39.3093 168.573 39.3093C166.977 39.3093 165.541 38.9602 164.264 38.2621C163.008 37.5439 162.02 36.5365 161.302 35.2399C160.604 33.9433 160.255 32.4472 160.255 30.7516C160.255 29.036 160.604 27.5299 161.302 26.2333C162 24.9367 162.978 23.9392 164.234 23.2411C165.491 22.5429 166.937 22.1938 168.573 22.1938C170.149 22.1938 171.555 22.5329 172.792 23.2111C174.049 23.8894 175.016 24.8569 175.695 26.1136C176.393 27.3504 176.742 28.7767 176.742 30.3925ZM172.403 29.1956C172.383 28.1184 171.994 27.2606 171.236 26.6223C170.478 25.964 169.551 25.6348 168.453 25.6348C167.416 25.6348 166.538 25.954 165.82 26.5924C165.122 27.2108 164.693 28.0785 164.534 29.1956H172.403ZM178.722 30.6917C178.722 29.0161 179.051 27.5299 179.71 26.2333C180.388 24.9367 181.296 23.9392 182.433 23.2411C183.59 22.5429 184.876 22.1938 186.293 22.1938C187.529 22.1938 188.607 22.4431 189.524 22.9418C190.462 23.4405 191.21 24.0689 191.768 24.8269V22.4631H195.988V39.04H191.768V36.6163C191.23 37.3943 190.482 38.0426 189.524 38.5613C188.587 39.06 187.5 39.3093 186.263 39.3093C184.866 39.3093 183.59 38.9503 182.433 38.2321C181.296 37.514 180.388 36.5066 179.71 35.21C179.051 33.8934 178.722 32.3873 178.722 30.6917ZM191.768 30.7516C191.768 29.7342 191.569 28.8665 191.17 28.1483C190.771 27.4102 190.232 26.8517 189.554 26.4727C188.876 26.0737 188.148 25.8742 187.37 25.8742C186.592 25.8742 185.874 26.0637 185.215 26.4427C184.557 26.8218 184.019 27.3803 183.6 28.1184C183.201 28.8365 183.001 29.6943 183.001 30.6917C183.001 31.6891 183.201 32.5668 183.6 33.3249C184.019 34.063 184.557 34.6315 185.215 35.0304C185.894 35.4294 186.612 35.6289 187.37 35.6289C188.148 35.6289 188.876 35.4394 189.554 35.0604C190.232 34.6614 190.771 34.1029 191.17 33.3847C191.569 32.6466 191.768 31.7689 191.768 30.7516Z" fill="white"/>
<path d="M57.5514 37.7169C55.1681 37.7169 54.1118 36.9419 52.6222 35.8478C50.9702 34.6626 48.9119 33.1582 45.0389 33.1582C41.1389 33.1582 39.1076 34.6626 37.4556 35.8478C35.966 36.9419 34.8827 37.7169 32.4993 37.7169C30.1431 37.7169 29.0597 36.9419 27.5702 35.8478C25.9181 34.6626 23.8598 33.1582 19.9869 33.1582C16.0869 33.1582 14.0285 34.6626 12.3765 35.8478C10.8869 36.9419 9.8306 37.7169 7.44727 37.7169C6.33685 37.7169 5.41602 38.4918 5.41602 39.4263C5.41602 40.3837 6.33685 41.1358 7.44727 41.1358C11.3473 41.1358 13.3785 39.6543 15.0306 38.4462C16.5201 37.3522 17.6035 36.5772 19.9869 36.5772C22.3702 36.5772 23.4265 37.3522 24.916 38.4462C26.5681 39.6543 28.6264 41.1358 32.4993 41.1358C36.3993 41.1358 38.4577 39.6543 40.1098 38.4462C41.5993 37.3522 42.6556 36.5772 45.0389 36.5772C47.3952 36.5772 48.4785 37.3522 49.9681 38.4462C51.6202 39.6543 53.6785 41.1358 57.5514 41.1358C58.6618 41.1358 59.5827 40.3837 59.5827 39.4263C59.5827 38.4918 58.6618 37.7169 57.5514 37.7169Z" fill="white"/>
<path d="M57.5514 28.3301C55.1681 28.3301 54.1118 27.5324 52.6222 26.4611C50.9702 25.253 48.9119 23.7715 45.0389 23.7715C41.1389 23.7715 39.1076 25.253 37.4556 26.4611C35.966 27.5324 34.8827 28.3301 32.4993 28.3301C30.1431 28.3301 29.0597 27.5324 27.5702 26.4611C25.9181 25.253 23.8598 23.7715 19.9869 23.7715C16.0869 23.7715 14.0285 25.253 12.3765 26.4611C10.8869 27.5324 9.8306 28.3301 7.44727 28.3301C6.33685 28.3301 5.41602 29.0823 5.41602 30.0396C5.41602 30.9741 6.33685 31.7491 7.44727 31.7491C11.3473 31.7491 13.3785 30.2448 15.0306 29.0367C16.5201 27.9654 17.6035 27.1905 19.9869 27.1905C22.3702 27.1905 23.4265 27.9654 24.916 29.0367C26.5681 30.2448 28.6264 31.7491 32.4993 31.7491C36.3993 31.7491 38.4577 30.2448 40.1098 29.0367C41.5993 27.9654 42.6556 27.1905 45.0389 27.1905C47.3952 27.1905 48.4785 27.9654 49.9681 29.0367C51.6202 30.2448 53.6785 31.7491 57.5514 31.7491C58.6618 31.7491 59.5827 30.9741 59.5827 30.0396C59.5827 29.0823 58.6618 28.3301 57.5514 28.3301Z" fill="white"/>
<path d="M7.44727 22.4054C11.3473 22.4054 13.3785 20.901 15.0306 19.7158C16.5201 18.6217 17.6035 17.8467 19.9869 17.8467C22.3702 17.8467 23.4265 18.6217 24.916 19.7158C26.5681 20.901 28.6264 22.4054 32.4993 22.4054C36.3993 22.4054 38.4577 20.901 40.1098 19.7158C41.5993 18.6217 42.6556 17.8467 45.0389 17.8467C47.3952 17.8467 48.4785 18.6217 49.9681 19.7158C51.6202 20.901 53.6785 22.4054 57.5514 22.4054C58.6618 22.4054 59.5827 21.6304 59.5827 20.6959C59.5827 19.7386 58.6618 18.9864 57.5514 18.9864C55.1681 18.9864 54.1118 18.2114 52.6222 17.1173C50.9702 15.9093 48.9119 14.4277 45.0389 14.4277C41.1389 14.4277 39.1076 15.9093 37.4556 17.1173C35.966 18.2114 34.8827 18.9864 32.4993 18.9864C30.1431 18.9864 29.0597 18.2114 27.5702 17.1173C25.9181 15.9093 23.8598 14.4277 19.9869 14.4277C16.0869 14.4277 14.0285 15.9093 12.3765 17.1173C10.8869 18.2114 9.8306 18.9864 7.44727 18.9864C6.33685 18.9864 5.41602 19.7386 5.41602 20.6959C5.41602 21.6304 6.33685 22.4054 7.44727 22.4054Z" fill="white"/>
</svg>
